<?xml version="1.0" encoding="UTF-8"?><svg id="Calque_1" xmlns="http://www.w3.org/2000/svg" viewBox="0 0 1920 1920"><path d="M1597,659c12.89-.84,27.67-.84,41,0l93.4.04-45.04,76.42-171.96,295.67c-4.33,7.45-7.97,14.3-8.54,22.82-.5,7.53,1.89,14.3,7.12,18.64,14.09,11.68,35.05-2.4,47.87-10.67,9.01-5.82,17.88-10.89,24.75-19.1l5.34,16.38c1.31,4.03-3.79,6.31-5.59,8.98-3.2,4.74-6.87,7.51-11,11.26-18.89,17.15-40.09,30.91-63.41,41.44-16.89,7.63-33.83,12.33-52.18,14.84-5.76.79-11.33,0-16.74.31l-5-1c-28.14-2.07-40.59-28.4-41-54l-.9-5c-.71-1.53,1.03-3.56-.94-5.31-4.84,8.15-11.7,12.71-18.27,18.22-11.78,9.9-24.07,17.44-37.75,24.24l-14.75,7.34c-16.77,8.34-44.95,15.51-63.4,15.51-5.43.89-11.61.86-17,0-12.86,0-25.57-2.42-38.19-6.82-26.29-10.86-40.26-29.69-46.63-57.47-22.7,19.1-46.48,35.12-72.92,47.42-24.14,11.22-49.47,15.86-75.42,11.13-19.57-3.57-34.25-17.73-37.85-37.24-.53-2.89-1.39-5.37-.99-8.01l-1-5v-6l-1-5c-2.89.67-3.6,4.31-5.82,6.27-32.21,28.42-59.58,47.1-103.03,53.79-3.38.52-6.15,1.37-9.15.94l-5,1c-2.61-.65-5.14.88-8.07.87-9.32-.04-18.45.71-27.63-.25-25.38-2.66-48.89-12.16-62.18-34.5-14.6-24.53-7.7-60.33,3.99-83.88l6.93-13.96c4.24-8.54,8-16.14,12.94-24.48l85.74-144.86,61.29.15c14.4.36,28.87.61,43.4.76l-.4,1.14-120.02,201.68c-2.69,4.51-2.94,8-4.08,12.32-.51,3.66-.32,7.34.1,11,1.35,6.84,2.92,13.27,8.31,18.76,9.5,9.68,22.32,12.59,35.68,12.52,12.31-.07,23.32-1.37,34.76-6.7,18.53-8.64,33.69-22.21,47.08-37.79,13.71-15.95,25.45-32.43,36.82-50.14l27.4-42.68,52.89-85.95c7-11.38,12.81-22.55,20.06-33.03,7.59-.75,15.63-1.09,23,0,9.09-.82,19.58-.87,29,0l53.08.17-123.7,207.93c-2.8,4.71-4.29,9.35-4.47,13.9-.73,2.97-.78,6.03.09,9-.51,5.43,3.79,9.6,7.52,13.39,2.53,2.57,4.86,1.94,7.48,2.61,3.09.77,6.09.77,9,0,14.56-.43,44.31-24.32,55-34l1-5c.43-11.19,3.04-22.01,6.83-33.35,15.05-44.98,42.39-86.22,77.67-118.14,37.75-34.16,88.23-59.51,138.5-64.51l5-1h7c6.52-.83,13.51-.81,20,0,2.21,0,4.86.56,7,.09l5,.91c24.14,2.89,57.84,11.56,76.71,28.26,1.89,1.67,2.96,3.46,5.6,2.68,1.79-.53,2.69-1.82,3.89-3.92l48.92-85.76,15.92-29.23c3.96-7.28,7.26-14.57,8.03-22.91,1.48-15.95-8.14-29.98-23.71-33.44-2.11-.47-4.02-.89-6.04-2.23,3.29-6.42,6.63-12.72,10.69-18.45,10.44-.83,21.69-.82,32,0ZM1421,858c-24.93,2.51-45.78,14.74-64.86,31.08-20.48,17.54-42.77,47.93-56.93,71.08l-17.86,29.19c-10.23,16.73-18.33,34.72-21.35,54.64-.25,1.68-1.6,3.05-1,6,.33,1.62.36,4.39,0,6-.44,1.96.76,2.92,1,5,1.07,9.12,6.22,18.24,13.93,23.91,25.3,18.6,59.08,6.47,82.39-9.5,6.3-4.32,11.45-9.06,17.17-13.84,5.96-4.98,10.72-10.47,15.87-16.27,12.85-14.45,23.83-29.5,33.7-46.36l61.26-104.69c-.58-1.35-2.07-2.11-2.14-2.78-.08-.82,2.02-1.2,2.71-1.88-9.06-17.76-22.56-28.86-43.88-31.59-1.56-.2-3.16-1.87-6-1-2.1.65-4.96-.75-7,0-2.32.35-5.4-1.05-7,1Z" fill="#fff"/><path d="M465,628c21.66-.87,44.35-.85,66,0l-215.87,337.02c-16.47,25.71-34.8,50.08-46.8,78.08-5.11,9.55-7.85,19.14-11.19,29.1-2.94,8.78-3.77,27.96,1.29,34.99,2.71-1.91,4.46-.72,6.73.83l310.85-479.99,65.99-.04c2.99.35,5.99.69,9,1l8,.09,6,.91c1.55-.08,3.52.44,5,0l5,1,20.04,2.93,17.29,3.77c18.65,4.07,35.92,12.09,51.29,23.62,15.32,11.49,26.67,27.08,31.56,45.47,1.19,4.5,2.06,8.14,1.82,12.2.78,3.29.8,6.72,0,10,.16,3.64-.29,6.97-1.07,10.94-13.44,68.15-77.29,102.87-141.12,111.78-5.67.79-10.57,1.77-15.81,1.28l-7,1c-.37,2.3.1,5,.11,7.98,26.97,6.7,51.23,17.35,70.32,38.94,21.06,23.82,31.46,57.49,24.62,89.23-5.1,23.63-16.41,44.33-29.95,64.01-20,29.08-47.42,50.98-78.37,67.31-3.84,2.03-7.14,3.34-11.17,5.21-29.25,13.58-60.34,21.05-92.35,25.5-3.83.53-6.88,1.17-10.21.82l-5,1h-5l-6,1c-2.96-.57-5.8.82-9.09.83l-46.91.17-6-1c-25.72-1.24-56.8-9.26-77.16-26.79-13.82-11.89-24.32-29.42-22.66-48.13-3.4.36-5.3-.91-8.07-2.34l-45.41,71.36c-25.37-1.47-47.48-13.8-63.58-33.42-11.05-12.93-16.76-30-17.12-46.69l-1-6,.11-7,.89-9c-.16-3.93.24-7.69.9-12.1,3.42-22.77,10.85-43.81,20.21-64.8,8.59-19.26,20.25-35.64,31.75-53.31l133.19-204.56c6.47-9.94,11.73-20.21,10.64-31.82-2.62-27.64-29.95-34.04-54.33-32.4l13.2-20.01h116.44ZM348,1043c-1.17,2.54-1,5.03-1,8v5c0,2.32-1,5.4,1,7,1.59,23.89,17.84,43.94,40.67,52.48,11.86,4.44,24.05,6.73,36.33,6.63-.02.76.95.89,1.95.89h8.05s6,0,6,0h8.06c1.05.01,2.02-.2,1.94-1,4.33.42,8.26-.31,13.08-.99,42.31-5.97,80.26-26.49,108.71-58.27,21.98-24.55,41.33-59.28,45.21-91.74,1.44-1.33.96-3.26,1-5,.11-5.07.03-10.19-.41-15.58-4.32-52.84-47.41-82.55-96.59-86.52-2.28-1.74-5.3-.65-8-.9-3.87-2.61-6.38-6.64-9.82-10.16l-14.35-14.64c-.84-.86-1.33-2.03-1.73-3.19l64.91-.02c1.98,0,4.59.67,6-.9,35.44-2.23,73.83-14.46,101.39-38.68,20.61-18.12,36.55-46.6,39.71-73.42,1.55-3.28,1.55-7.72,0-11-3.87-36.89-39.29-53.06-72.09-57-1.63-.2-3.02-1.01-5-1l-28.86.13-114.5,176.57-128.47,200.22c1.24,2.61-.59,3.04-1.58,4.45-1.82,2.59-.53,6.34-1.59,8.64Z" fill="#fff"/><path d="M369,1309l5,1c1.47,2.15-1.85,4.18-2.36,7.01l-37.25-.05-24.52-32.66c-4.1,8.53-8.68,15.85-11.18,24.4,4.51,2.27,8.57.7,13.2,1.64-.35,1.56-1.59,6.44-3.81,6.46l-31.08.2c-7.48.83-15.54.83-23,0,.69-1.85,1.59-6.26,3.97-6.88,6.21.2,12.52-.47,15.63-6.62,5.12-10.13,10.36-20.23,15.22-30.64l9.19-19.68c-4.03-2.68-8.22-2.21-13.14-2.21.51-1.96,1.74-5.62,3.43-6.65,6.79-.68,13.28-.32,19.7-.32,11.6-.84,23.43-.93,35,0-.94,1.88-1.29,6.26-4.03,6.74-4.47.77-10.48-.45-13.51,3.66-4.64,6.29-7.01,13.57-10.9,20.36,2.72,0,3.61-1.86,5.47-2.78l39.17-19.59c.61-.31.99-1.07.8-1.39-2.41-.33-4.64-.71-6.69-1.14.91-1.7.82-5.49,2.94-6.7l48.75-.1c-4.69,14.19-4.45,1.87-30.12,13.8l-39.08,18.17,19.08,23.1c2.72,3.3,5.95,6,8.84,9.1,1.45,1.97,3.79,1.12,5.28,1.76Z" fill="#fff"/><path d="M1110,1239c7.82-.84,16.16-.82,24,0,7.02,0,14.38,1.01,21.3,3.73,5.97,2.34,7.41,9.51,4.05,14.68-5.08,7.82-13.09,11.85-22.48,13.87,4.33,2.69,14.96,4.84,14.4,13.5-1.22,18.81-30.47,25.2-45.71,26.8-7.71.81-15.2.41-22.57.41-14.03.83-28.97.88-43,0,.19-2.33,1.42-4.37,3-6l5-1c5.45.69,10.05-2.07,12.89-7.19s5.69-10.38,8.03-16c3.98-9.54,8.95-18.14,13.45-27.5.87-1.82,2.95-5.24,1.23-6.72-2.98-1.92-6.73-1.13-10.14-2,.99-1.7,1.71-5.48,3.58-6.43l32.96-.17ZM1132.03,1255.9c1.08-2.55.95-5.7-2.01-6.93-5.25-2.19-16.04-4.67-19.62,2.41l-8.74,17.32c10.45,1.44,26.05-2.55,30.37-12.8ZM1121.8,1286.88c1.79-8.73-13.52-8.9-19.73-9.98-4.5-.78-5.79,2.6-7.3,5.94l-9.25,20.43c12.96,3.8,33.79-4.26,36.28-16.39Z" fill="#fff"/><path d="M1437,1246c4.4-.9,9.6-.84,14,0,8.56,0,24.17.2,27,10l-1,5c-.42,2.22-.14,4.57-2.39,6.75-6.54,6.35-14.94,9.86-24,11.78,2.72,8.6,6.57,15.61,12.12,21.73,1.76,1.94,5.69,1.62,6.83,4.14.79,1.75-1.75,5.19-3.56,5.42-4.02-.14-8.02-.41-12-.82-7.63,0-17.17-.8-20.52-8.47l-7.3-16.74c-.88-1.35-5.61-1.42-6.78-.25-3,5.13-6.01,11.63-8.56,17.53.28,1.75,3.3.59,4.17,1.02l7,.91c.03,1.4-1.34,5.47-2.97,5.73-5.58.62-10.94.27-16.03.27-10.45.81-21.55.86-32,0,.61-1.62.93-4.96,3.28-5.65,4.07-1.19,10.85-.19,13.41-4.58,8.32-14.27,15.36-30.61,22.15-45.48-.76-1.96-3.77-.85-4.84-1.39-1.77-.12-3.44-.43-5-.91.62-1.29,1.12-5.42,3.08-5.72l33.92-.28ZM1435,1254c-1.33.83-11.81,23.07-12.04,22.51.49,1.22,1.76-.12,3.04.49,1.77.85,3.06-.79,5-.9,7.15-.4,21.77-7,21.87-16.98.03-2.84-3.94-5.13-6.87-5.13-3-1.73-8-1.73-11,0Z" fill="#fff"/><path d="M466,1310l5-1c5.73.65,9.05-3.4,11.76-8.31,6.51-11.83,13.24-23.04,18.1-35.69.66-1.71,2.23-3.12.64-4.95-.66-.76-2.54-.35-3.49-1.05l-5-1c-.89-.44-2.64.5-3.57-.72.99-1.89,1.91-3.55,2.57-5.28,9.49-.81,19.52-.87,29,.09,2.5,1.23,3.81,3.86,5.89,6.06l12.09,12.85c6.65,7.07,12.14,13.64,19.22,20.38,5.59-10.27,10.22-20.28,14.17-31.71-4.18-2.22-8.52-1.67-13.55-1.66.63-2.69,1.94-4.65,3.39-7.02l42.01.18c-1.16,3.16-1.9,4.91-3.61,6.71-3.69.47-10.04-.55-12.57,3.06-4.66,6.63-8.45,13.74-12.07,20.99l-16.94,33.96c-4.02-.29-8.99,1.22-12.33-.49l-36.39-42.6c-3.25,5.04-16.66,33.4-14.9,35.29s8.52.42,12.77,1.04c-.7,2.62-1.92,4.55-3.38,6.88l-41.85.02c.24-2.64,1.68-4.45,3.05-6Z" fill="#fff"/><path d="M816,1315c-1.91.8-4.1.83-6,0-14.27.47-34.21-5.03-35-20-.73-1.59-.74-3.4,0-5-.76-8.59,10.28-19.72,15.92-24.06,13.24-10.19,29.02-15.09,45.08-16.94l5-.9c14.84-.55,34.86.41,43.52,13.38,7.98,11.96-2.86,26.47-12.39,34.81-13.89,12.15-38.93,19.95-56.12,18.7ZM815,1307c2.41,1.58,6.04,1.82,9,0,9.21-1.12,18.64-5.53,25.02-12.83,7.21-8.26,19.96-30.47,5.05-36.22-7.63-2.94-15.34-2.67-23.25.02-21.46,7.3-36.62,33.61-27.03,44.46,2.46,2.79,6.36,4.87,11.2,4.58Z" fill="#fff"/><path d="M682,1249.1l6,.9,6,.09,6,.91h6c2.29.19,3.29.85,3,2-1.34,5.75-2.69,12.05-6.04,16.91-2.29.42-4.62.78-6.96,1.09-.33.05-.67-.03-1,0l-1-7c-1.64-3.89-5.28-5.4-10.01-6.24-23.65-4.21-51.1,8.54-56.99,32.24-.95,2.61-.64,5.35,0,8,.84,1.66.58,3.8,2.7,5.41,4.21,3.2,9.24,5.07,14.3,4.69,3.63.76,7.39.75,11-.1,1.79-.92,4.9-.4,6.25-2.74,10.32-17.91,5.11-12.95,3.75-14.26l-5-1c-2.17.2-4.27-.09-7.07-.05.75-2.55,1.27-4.47,2.35-6.98l49.57.18c-4.71,17.87-8.13-9.12-21.21,28.56-6.51,2.69-14.14,2.08-21.01,3.88-4.03,1.06-7.95.41-11.63.41-3.58.88-7.41.88-11,0-12.27,0-34.06-2.8-39.23-16.67-5.44-14.6,10.94-31.19,23.72-37.85,13.03-6.8,27.25-10.54,41.51-11.48,1.87-.63,3.87-.93,6-.9,3.07-.95,6.84.38,10,0Z" fill="#fff"/><path d="M1253.04,1265.97c-.84-.37-.79-.69.11-.96-.89-.24-.89-.58-.05-1.01.82-1.96.49-4.03-.08-6.02l-2.08.64c-6.81-2.11-14.09-2.55-21.83-1.32l-7.7,14.38-2.41.32c-.63,1.1.02,1.61,1.96,1.52l14.04-.42c-.31-1.91.83-3,3.44-3.27,2.06-3.53,4.25-4.81,6.56-3.83,2.52-.87,5.64-.71,8.04-.03-.17,1.51-.48,3.07-1.32,4.73l-9.68,19.05c-3.24.03-6.98,1.2-9.16-.51.03-1.5,1.33-3.65,1.25-4.75-.29-4.27-15.26-1.9-20.04-2.45-3.8,6.81-7.19,13.39-9.39,20.69l5.3.37h15c13.56-1.19,12.95-6.33,22-11.1,1.64-.49,3.4-.88,5,0,1.68.23,3.4-.59,5.1.51-6.1,6.56-10.38,14.05-17.1,18.49-24.74.39-49.41.69-74,.9-.96.02-3.43.65-3.75-.94-.36-1.81,1.5-6.17,3.46-5.99,16.13,1.52,17-8.87,22.7-20.65l13.83-28.6c-3.01-1.83-6.43-1.56-10.03-2.07-.37-1.6.9-6,2.82-6.55l74.08-.05-6.68,18.2c-3.9-.84-6.56.17-9.38.73Z" fill="#fff"/><path d="M1367,1264c-2.64.37-5.31.71-8,1-2.37.24.18-6.15-1.53-8.82-.42-.66-1.79-.5-2.47-1.18l-5-1c-5.64.23-11.41-.47-17.42.35l-9.59,18.52,12.94.22c15.08.25,6.04-11.1,22.17-7.63l-11.04,23.48c-3.38.13-6.01.18-9.06-.02-.83-2.66,2.38-5.15,0-6.91-6.59-.88-13.39-.84-20,0-1.63,7.23-8.04,12.81-8.02,20.02l7.02.98c7.4.04,15.08.58,22.35-2.77,7.7-3.55,10.57-13.2,21.78-7.81l-15.48,18.58-79.41-.09c3.9-14.36,13.33.08,20.38-13.37,1.44-2.75,2.56-5.3,3.93-8.13l15.95-32.96c.46-.95.77-2-.02-2.37-.42-.2-1.12.02-1.47-.09l-5-1c-1.34-.14-2.7.48-3.94-.44,1.7-1.9,1.73-5.32,3.94-5.56,6.48-.83,13.69-.79,20,0,12.96-.22,25.96-.52,39-.9,4.49-.7,9.3-.07,14.48.4-2.04,6.85-3.99,12.18-6.48,17.5Z" fill="#fff"/><path d="M956,1249c12.77-.86,26.18-.86,39,0-1.03,6.06-4.25,11.5-6.12,17.81-3.21.37-5.74.28-8.8.1-.51-2.4.45-4.54-.21-6.9-.71-2.54-3.88-2.89-5.87-3.01-6.59-.82-13.41-.86-20,0-4.93,4.98-6.72,12.22-9.92,18.93,40.28,2.33,14.2-8.94,37.21-6.8-3.45,8.4-8.03,14.13-10.41,22.77l-9.95.05,1.13-6.97-22.76.04-9.12,19.24c-.47,2.31,3.63,1.14,4.81,1.83l8,.91c.02,1.39-1.34,5.47-2.95,5.74-6.3.57-12.29.26-18.05.26-3.79.19-31.54,1.51-32.41.14-.13-.21.09-.64.41-1.14.17-1.49.78-2.91,1.46-4.05.82-1.38,2.71-.37,3.54-.95l5-1c2.41-.39,5.3-1.69,6.65-4.38l18.7-37.29c.98-1.96,1.9-4.44,2.38-6.42.59-2.37-2.81-1.26-3.73-1.91l-6-1c-.1-1.49,1.38-5.36,3-5.84l35-.16Z" fill="#fff"/><path d="M1547,1244c1.52-.86,3.45-.76,5,0,1.92-.26,4.14.56,6,.1l5,.9c2.82.86,6.3.29,9.34,1.58l-3.54,16.21-4.8.21c-1.78.59-4.3,1.16-4.91-1,.5-5.68-3.91-9.42-9.09-10.1-2.35-.4-4.68-.4-7,0,2.41-1.34-17.46,3.73-14.61,10.57,2.5,5.99,16,6.03,25.49,11.63,6,3.54,8.63,10.32,4.73,16.7-5.29,8.67-14.18,14.1-23.93,16.84-4.47,1.26-8.44,2.83-12.68,2.36l-5,1-9-.09-5-.91c-4.81.53-9.37-.75-14-2-2.52-.35-3-1.75-2-4-.02-4.26.91-9.43,1.72-13.98,3.29-1.13,6.07-1.69,9.01-2.03,1.18,4.04,1.86,8.66,5.06,11.12,7.94,6.1,18.16,4.89,26.68.31,3.47-1.87,8.27-7.73,4.22-10.92-6.46-5.1-30.7-7.29-29.27-20.43.83-7.6,7.26-13.11,13.87-16.87,8.8-5.01,18.99-6.88,28.71-7.2Z" fill="#fff"/><path d="M466,1252c1.88-.86,4.12-.87,6,0,1.43,2.03-1.49,4.67-3,6l-6,1c-7.79-1.18-13.38,14.96-16.88,22.18l-12.07,24.9c-.54,1.11.02,2.19.54,2.72.56.57,1.91-.09,2.41.3l6,.9c1.68,1.56-.38,5.7-2.74,5.93-3.2.32-5.76.07-8.26.07l-39.41.14.41-1.14c.03-9.35,12.6-1.2,17.28-10.76s9.63-17.89,13.53-27.39c2.36-5.76,5.6-10.66,7.62-16.62-3.46-2.26-6.75-.79-10.44-1.39-.04-1.39,1.07-6.59,2.99-6.6l42.03-.23Z" fill="#fff"/><path d="M1240,1311c-19.68,2.19-55.57.57-74,.9-.1-.37.38-.9,1.12-.9h72.88Z" fill="#ecdeb7"/><path d="M531,628h-66c-.12-.37.35-1,1.1-1h63.8c.75,0,1.22.63,1.1,1Z" fill="#ddc57c"/><path d="M962,832c.12-.38-.36-.98-1.07-.98l-40.85-.04c-.69,0-1.18-.5-1.08-.88l43.87-.04c.59,1.17-.09,1.75-.87,1.94Z" fill="#eadbae"/><path d="M1083,1312c.12.38-.36.98-1.07.99l-40.94.04c-.96,0-1.03-.61-.99-1.03h43Z" fill="#ecddb5"/><path d="M1638,659h-41c-.87-.28-.86-.62,0-1h39.93c.71,0,1.19.63,1.07,1Z" fill="#e1cc8d"/><path d="M432,1316c.12.38-.36.99-1.07.99l-38.81.03c-.45-1.24-.1-1.88.87-2.02-.12.37.36.99,1.07.99h37.93Z" fill="#ecddb4"/><path d="M1359,1246.1c-12.77,1.99-25.97.9-39,.9-.87-.28-.86-.62,0-1l39,.1Z" fill="#ede1bd"/><path d="M995,1249h-39c-.07-.78.92-1.02,1.97-1.02h35.06c1.05,0,2.05.25,1.97,1.02Z" fill="#e2cd8f"/><path d="M343,1244h-35c-2.95-1.63,42.41-1.43,35,0Z" fill="#e1cb8c"/><path d="M922,1313c.12.38-.36.98-1.06.98l-31.82.04c-.44-1.25-.1-1.88.88-2.02-.12.36.36,1,1.06,1h30.94Z" fill="#ecddb6"/><path d="M1597,658v1h-32c-.12-.37.36-.99,1.06-.99h30.94Z" fill="#eee1bd"/><path d="M1403,1310c.12.39-.36.97-1.06.98l-29.97.06c-.87,0-1.13-.63-.97-1.04h32Z" fill="#ecdeb7"/><path d="M521,1252.09l-29-.09c-.07-.78.92-1.02,1.96-1.02h25.09c1.09-.01,2.09.28,1.96,1.11Z" fill="#e7d6a4"/><path d="M1153,832h-29c-.87-.28-.86-.62,0-1l27.94-.05c.68,0,1.18.75,1.06,1.05Z" fill="#e0c987"/><path d="M1134,1239h-24c-.07-.77.92-1.03,1.95-1.03h20.09c1.04,0,2.03.26,1.95,1.03Z" fill="#ddc57e"/><path d="M277,1317c.08.78-.92,1.02-1.95,1.02h-20.09c-.86.01-1.11-.61-.96-1.02h23Z" fill="#eddeb8"/><path d="M1124,831v1h-23c7.3-2.07,15.32-.99,23-1Z" fill="#e9daac"/><path d="M1338,1282h-20c.38-1.67,21.02-1.46,20,0Z" fill="#ecdeb5"/><path d="M974,1257h-20c-2.71-1.52,22.42-1.48,20,0Z" fill="#ecddb3"/><path d="M1413,823h-20c-.08-.77.91-1.02,1.95-1.02h16.1c1.04,0,2.02.25,1.95,1.02Z" fill="#e7d6a3"/><path d="M1320,1246v1h-20c-.07-.77.92-1.03,1.95-1.03l18.05.03Z" fill="#e5d29b"/><path d="M1260,1136c.08.77-.91,1.02-1.95,1.02h-13.1c-1.04,0-2.02-.25-1.95-1.02h17Z" fill="#ebddb3"/><path d="M1225,1303.1c-4.71.42-10.17.34-15,0h15Z" fill="#e8d8a8"/><path d="M1451,1246h-14c-3.24-1.48,17.24-1.48,14,0Z" fill="#dcc37a"/><path d="M1466,1310.82c-.12.01-13.63.93-12-.82h10.05c.96-.01,1.87.21,1.95.82Z" fill="#efe2bf"/><path d="M651,1316c-3,1.73-8,1.73-11,0h11Z" fill="#eddfb9"/><path d="M655,1308c-3.23,1.66-7.67,1.67-11,.1l11-.1Z" fill="#ebdcb1"/><path d="M838,1057c-.8-4.08-1.2-6.8-.1-11l.1,11Z" fill="#ecddb5"/><path d="M797,729c-.15-3.28-.2-6.72,0-10,1.73,2.65,1.73,7.35,0,10Z" fill="#ebddb4"/><path d="M651,629h-7.05c-1.05.01-2.03-.2-1.95-1h7.05c1.05-.01,2.02.19,1.95,1Z" fill="#dfc987"/><path d="M1102,1079c-2.75,2.38-6.17.73-9,0h9Z" fill="#e7d6a4"/><path d="M192.11,1056c.05-2.99-1.21-6.7.89-9,.12,2.97.68,6.57-.89,9Z" fill="#e5d199"/><path d="M1078,1063c-1.72-2.57-1.61-6.34-.09-9l.09,9Z" fill="#ecdeb6"/><path d="M943,1307c-2.45.22-6.11.2-8-.91,2.45.44,6.44-1.41,8,.91Z" fill="#ebdcb1"/><path d="M627,1298c-1.23-2.45-2.01-5.62,0-8v8Z" fill="#eddfb9"/><path d="M1367,1264c-1.48,2.15-5.65.77-8,1,1.94-2.16,5.35-.55,8-1Z" fill="#ede0ba"/><path d="M695,1271c-2.2-1.46-.53-4.7-1-7,.93,2.21,1.47,4.33,1,7Z" fill="#e4d096"/><path d="M702.96,1269.91c-1.53,2.22-4.64.73-6.96,1.09,1.58-2.03,4.66-.61,6.96-1.09Z" fill="#efe3c0"/><path d="M1317,1303c-2.34-.01-5.27.79-7.02-.98,2.32.33,5.41-1.07,7.02.98Z" fill="#e4d199"/><path d="M1422,1304c-2.34.13-5.12.31-7-.91,2.06.38,5.9-1.32,7,.91Z" fill="#e9daad"/><path d="M639,853c-1.6,2.05-4.68.65-7,1,.92-1.82,5.1-1.17,7-1Z" fill="#ecdeb5"/><path d="M1550,1251.9c-2.33.15-4.67.15-7,0,2.89-1.61,4.24-.37,7,0Z" fill="#ecdfb7"/><path d="M360,1251l-6.1.02c-.96,0-.9-.58-.59-1.16,2.16.65,5.4-1.07,6.69,1.14Z" fill="#eddfb8"/><path d="M665,630c-1.97.1-4.6.6-6-.91,1.99.02,4.74-1,6,.91Z" fill="#ebdcb3"/><path d="M1405,1252.91c-1.47-.51-4.65,1.5-5-.91,1.76-.51,3.61.21,5,.91Z" fill="#eddfb9"/><path d="M433,1156c-1.98,0-4.73.73-6-1,1.99.1,4.73-.81,6,1Z" fill="#eddfb8"/><path d="M924,1256c-1.68-.48-5.34,1.2-6-1,1.97-.42,4.53-.03,6,1Z" fill="#ecdfb7"/><path d="M443,1310c-2.09.04-4.29.46-6-.9,2.25-.14,4.31-.67,6,.9Z" fill="#e8d8a9"/><path d="M193,1069c-1.74-1.27-1.03-4.02-1-6,1.77,1.27.96,4.01,1,6Z" fill="#e2ce92"/><path d="M816,1315c-1.25,1.68-4.75,1.68-6,0,1.97-.06,4.04-.14,6,0Z" fill="#eddfba"/><path d="M700,1251c-1.99,0-4.59.78-6-.91,1.98.03,4.74-1.02,6,.91Z" fill="#ebdcb2"/><path d="M472,1252h-6c1.25-1.68,4.75-1.68,6,0Z" fill="#dcc37a"/><path d="M672,1249.1c-2.12.65-3.67.75-6,.9,1.26-1.92,4.02-.79,6-.9Z" fill="#e8d7a7"/><path d="M469,1258c-1.69,1.49-3.79,1.07-6,1,1.6-1.56,3.94-.99,6-1Z" fill="#ecdeb5"/><path d="M1564,1263c-1.04.53-1.94,1.26-3.46,1.14s-1.58-.62-1.45-2.14c1.43,1,3.21,1.1,4.91,1Z" fill="#efe2bf"/><path d="M495,1154c-1.19,1.48-4.13,1.36-6,1,1.27-1.84,4.01-1,6-1Z" fill="#eddfb8"/><path d="M1489,1308c-1.2-.32-3.22.86-3.14-1.52.03-.75.59-1.8,1.14-2.48-.29,1.67.59,3.14,2,4Z" fill="#eadaac"/><path d="M688,1250c-1.99-.03-4.58.73-6-.9,1.94-.24,4.77-.78,6,.9Z" fill="#eadaad"/><path d="M675,631c-1.66-.13-4.05.73-5-1,2.1-.62,3.29.75,5,1Z" fill="#ecddb5"/><path d="M1386,823c-.95,1.77-3.34.84-5,1,.95-1.68,3.34-1,5-1Z" fill="#ede0bb"/><path d="M1425,824c-1.66-.12-3.92.66-5-.91,2.17-.47,3.29.7,5,.91Z" fill="#ebdcb2"/><path d="M1157,1045c.13-1.66-.73-4.05,1-5-.07,1.85.51,3.63-1,5Z" fill="#e7d5a2"/><path d="M505,1153c-.95,1.71-3.34,1-5,1,.93-1.53,3.37-1.17,5-1Z" fill="#ecdfb8"/><path d="M1477,1261c.13-1.66-.73-4.05,1-5,.61,2.1-.68,3.3-1,5Z" fill="#eee1bc"/><path d="M1442,1136c-1.81.1-3.6-.15-5-1,1.66.13,4.05-.73,5,1Z" fill="#eddfb9"/><path d="M851,1130c-.87,1.38-3.46,1.38-5,1,.92-1.49,3.39-1.23,5-1Z" fill="#ecdeb7"/><path d="M665,1291c-1.66-.13-4.05.73-5-1,1.64-.15,3.91-.05,5,1Z" fill="#efe3c1"/><path d="M775,1295c-1.48-1.34-1.48-3.66,0-5v5Z" fill="#e4cf96"/><path d="M1252,1292h-5c1.64-.87,3.36-1.94,5,0Z" fill="#e9daad"/><path d="M1305,1254c-1.74.13-3.67.31-5-1,1.67-.15,3.83-.31,5,1Z" fill="#eddfb8"/><path d="M971,1085c-1.72-.95-1-3.34-1-5,1.48.91,1.24,3.4,1,5Z" fill="#ecdeb7"/><path d="M374,1310c-1.95.64-3.42-.32-5-1,1.68.15,4.01-.76,5,1Z" fill="#e6d5a0"/><path d="M498,1259c-1.82.24-3.57.17-5-1,1.9-.32,3.51-.1,5,1Z" fill="#eee0bb"/><path d="M471,1309c-.95,1.73-3.34.87-5,1,1.24-1.41,3.21-1.2,5-1Z" fill="#eddfb8"/><path d="M1563,1245c-1.65-.12-3.92.66-5-.9,2.18-.54,3.21.35,5,.9Z" fill="#e1cb8b"/><path d="M709,1253c-.94-.55-1.97-1.65-3-2l3.93.06c.36,1.22.03,1.75-.93,1.94Z" fill="#eee2bf"/><path d="M1508,1310.91c-1.65-.02-4.07.87-5-.91,1.62-.18,3.94-.46,5,.91Z" fill="#efe3c1"/><path d="M1522,1310c-.95,1.68-3.34,1.02-5,1,.93-1.52,3.38-1.18,5-1Z" fill="#ede0ba"/><path d="M1552,1244c-1.63.22-3.35-.05-5,0,.86-1.64,4.14-1.64,5,0Z" fill="#ddc57e"/><path d="M970,1074c-1.73-.95-.87-3.34-1-5,1.89.67,1,3.36,1,5Z" fill="#ecdeb6"/><path d="M1048,1305c-.95,1.73-3.34.87-5,1,1.3-1.35,3.16-1.23,5-1Z" fill="#eee2bd"/><path d="M900,1306c-1.29,1.39-3.26,1.1-5,1,1.5-1.05,3.12-1.33,5-1Z" fill="#e8d7a6"/><path d="M841,1248.1c-1.14.99-2.67,1.06-5,.9.93-1.75,3.35-.88,5-.9Z" fill="#e9daad"/><path d="M1396,1081c-1.75-.93-.88-3.35-.9-5,1.18,1.52.87,3.18.9,5Z" fill="#e6d49e"/><path d="M1428,857c-1.9,1.03-3.87,1.43-7,1,1.6-2.05,4.68-.65,7-1Z" fill="#efe2c0"/><path d="M1441,858c-1.98-.24-4.73.9-6-1,2.84-.87,4.44.8,6,1Z" fill="#eddfb9"/><path d="M1259,1050c-.6-2.95.75-4.32,1-6-.24,1.98.9,4.73-1,6Z" fill="#eee1bd"/><path d="M1260,1061c-.24-2.08-1.44-3.04-1-5,1.73.95.87,3.34,1,5Z" fill="#eee2be"/><path d="M700.1,722v-11c1.55,3.28,1.55,7.72,0,11Z" fill="#ede0bb"/><path d="M435,1123h-8.05c-1,0-1.97-.14-1.95-.9,1.04,0,11.19-.76,10,.9Z" fill="#e0c987"/><path d="M451,1122c.07.8-.9,1.01-1.94,1.01h-8.06c-2-1.55,10.53-.96,10-1.01Z" fill="#e1cc8d"/><path d="M522,863.9c-2.91.11-5.6.72-8-.9,2.7.25,5.72-.84,8,.9Z" fill="#ebdcb2"/><path d="M347,1051c0-2.97-.17-5.46,1-8-.45,2.65,1.16,6.06-1,8Z" fill="#ecdfb9"/><path d="M348,1063c-2-1.6-1-4.68-1-7,1.92,1.61.85,4.67,1,7Z" fill="#ecdeb8"/><path d="M559,834.1c-1.41,1.57-4.02.9-6,.9,1.26-1.94,4.02-.78,6-.9Z" fill="#e9d9ab"/><path d="M628,654c-1.66-.13-4.05.73-5-1,1.98,0,3.37.8,5,1Z" fill="#eee2be"/><path d="M618,971c.13-1.66-.73-4.05,1-5-.04,1.74.44,3.67-1,5Z" fill="#e8d7a6"/><path d="M1446,1254h-11c3-1.73,8-1.73,11,0Z" fill="#ecdeb7"/><path d="M1431,1276.1c-1.94.11-3.23,1.74-5,.9.93-1.75,3.35-.88,5-.9Z" fill="#e6d4a0"/><path d="M824,1307c-2.96,1.82-6.59,1.58-9,0h9Z" fill="#eee2bf"/><path d="M1235,1273.1c-3.72,1.45-22.78,1.69-16-1.1-.07.79.91,1.01,1.95,1.02l14.05.08Z" fill="#e0ca88"/><path d="M1253.15,1265.01l-.11.96c-2.59.51-5.43-.31-8.04.03,2.24-1.96,5.33-.71,8.15-.99Z" fill="#ddc57e"/><path d="M1253.1,1264c-.1-2.01-.13-4.01-.08-6.02,1.17,1.72,1.92,4.4.08,6.02Z" fill="#ebdcb2"/><path d="M1355,1255c-1.66-.13-4.05.73-5-1,1.84-.07,3.62-.39,5,1Z" fill="#eee2be"/></svg>